<svg width="24" height="24" viewBox="0 0 24 24" fill="none" xmlns="http://www.w3.org/2000/svg">
<path fill-rule="evenodd" clip-rule="evenodd" d="M13.6349 20.7272V12.766H16.3583L16.7669 9.66243H13.6349V7.68126C13.6349 6.78299 13.8882 6.17083 15.203 6.17083L16.8771 6.17015V3.39421C16.5876 3.35731 15.5938 3.27271 14.4371 3.27271C12.0217 3.27271 10.3681 4.71878 10.3681 7.37389V9.66243H7.63647V12.766H10.3681V20.7272H13.6349Z" fill="#BBC3CF"/>
<mask id="mask0_659_17990" style="mask-type:luminance" maskUnits="userSpaceOnUse" x="7" y="3" width="10" height="18">
<path fill-rule="evenodd" clip-rule="evenodd" d="M13.6349 20.7272V12.766H16.3583L16.7669 9.66243H13.6349V7.68126C13.6349 6.78299 13.8882 6.17083 15.203 6.17083L16.8771 6.17015V3.39421C16.5876 3.35731 15.5938 3.27271 14.4371 3.27271C12.0217 3.27271 10.3681 4.71878 10.3681 7.37389V9.66243H7.63647V12.766H10.3681V20.7272H13.6349Z" fill="white"/>
</mask>
<g mask="url(#mask0_659_17990)">
</g>
</svg>
