<svg width="24" height="24" viewBox="0 0 24 24" fill="none" xmlns="http://www.w3.org/2000/svg">
<path fill-rule="evenodd" clip-rule="evenodd" d="M7.6007 2.18188H16.3992C19.3874 2.18188 21.8184 4.61288 21.8182 7.60081V16.3993C21.8182 19.3873 19.3874 21.8182 16.3992 21.8182H7.6007C4.61276 21.8182 2.18188 19.3874 2.18188 16.3993V7.60081C2.18188 4.61288 4.61276 2.18188 7.6007 2.18188ZM16.3993 20.076C18.4267 20.076 20.0761 18.4267 20.0761 16.3993H20.076V7.60081C20.076 5.57355 18.4266 3.92412 16.3992 3.92412H7.6007C5.57343 3.92412 3.92412 5.57355 3.92412 7.60081V16.3993C3.92412 18.4267 5.57343 20.0761 7.6007 20.076H16.3993ZM6.85721 12.0002C6.85721 9.16431 9.16425 6.85721 12.0001 6.85721C14.8359 6.85721 17.1429 9.16431 17.1429 12.0002C17.1429 14.8359 14.8359 17.1429 12.0001 17.1429C9.16425 17.1429 6.85721 14.8359 6.85721 12.0002ZM8.62805 12.0001C8.62805 13.8594 10.1408 15.3719 12.0001 15.3719C13.8593 15.3719 15.3721 13.8594 15.3721 12.0001C15.3721 10.1406 13.8594 8.62797 12.0001 8.62797C10.1407 8.62797 8.62805 10.1406 8.62805 12.0001Z" fill="#BBC3CF"/>
<mask id="mask0_659_17992" style="mask-type:luminance" maskUnits="userSpaceOnUse" x="2" y="2" width="20" height="20">
<path fill-rule="evenodd" clip-rule="evenodd" d="M7.6007 2.18188H16.3992C19.3874 2.18188 21.8184 4.61288 21.8182 7.60081V16.3993C21.8182 19.3873 19.3874 21.8182 16.3992 21.8182H7.6007C4.61276 21.8182 2.18188 19.3874 2.18188 16.3993V7.60081C2.18188 4.61288 4.61276 2.18188 7.6007 2.18188ZM16.3993 20.076C18.4267 20.076 20.0761 18.4267 20.0761 16.3993H20.076V7.60081C20.076 5.57355 18.4266 3.92412 16.3992 3.92412H7.6007C5.57343 3.92412 3.92412 5.57355 3.92412 7.60081V16.3993C3.92412 18.4267 5.57343 20.0761 7.6007 20.076H16.3993ZM6.85721 12.0002C6.85721 9.16431 9.16425 6.85721 12.0001 6.85721C14.8359 6.85721 17.1429 9.16431 17.1429 12.0002C17.1429 14.8359 14.8359 17.1429 12.0001 17.1429C9.16425 17.1429 6.85721 14.8359 6.85721 12.0002ZM8.62805 12.0001C8.62805 13.8594 10.1408 15.3719 12.0001 15.3719C13.8593 15.3719 15.3721 13.8594 15.3721 12.0001C15.3721 10.1406 13.8594 8.62797 12.0001 8.62797C10.1407 8.62797 8.62805 10.1406 8.62805 12.0001Z" fill="white"/>
</mask>
<g mask="url(#mask0_659_17992)">
</g>
</svg>
