<svg width="64" height="64" viewBox="0 0 64 64" fill="none" xmlns="http://www.w3.org/2000/svg">
<circle cx="32" cy="32" r="32" fill="#DCFCE7"/>
<rect width="64" height="64" rx="6" fill="#22C55E"/>
<path d="M41.7099 27.29C41.617 27.1963 41.5064 27.1219 41.3845 27.0711C41.2627 27.0203 41.132 26.9942 40.9999 26.9942C40.8679 26.9942 40.7372 27.0203 40.6154 27.0711C40.4935 27.1219 40.3829 27.1963 40.2899 27.29L33.9999 33.59L29.7099 29.29C29.617 29.1963 29.5064 29.1219 29.3845 29.0711C29.2627 29.0203 29.132 28.9942 28.9999 28.9942C28.8679 28.9942 28.7372 29.0203 28.6154 29.0711C28.4935 29.1219 28.3829 29.1963 28.2899 29.29L22.2899 35.29C22.1962 35.383 22.1218 35.4936 22.071 35.6154C22.0203 35.7373 21.9941 35.868 21.9941 36C21.9941 36.132 22.0203 36.2627 22.071 36.3846C22.1218 36.5064 22.1962 36.617 22.2899 36.71C22.3829 36.8037 22.4935 36.8781 22.6154 36.9289C22.7372 36.9797 22.8679 37.0058 22.9999 37.0058C23.132 37.0058 23.2627 36.9797 23.3845 36.9289C23.5064 36.8781 23.617 36.8037 23.7099 36.71L28.9999 31.41L33.2899 35.71C33.3829 35.8037 33.4935 35.8781 33.6154 35.9289C33.7372 35.9797 33.8679 36.0058 33.9999 36.0058C34.132 36.0058 34.2627 35.9797 34.3845 35.9289C34.5064 35.8781 34.617 35.8037 34.7099 35.71L41.7099 28.71C41.8037 28.617 41.8781 28.5064 41.9288 28.3846C41.9796 28.2627 42.0057 28.132 42.0057 28C42.0057 27.868 41.9796 27.7373 41.9288 27.6154C41.8781 27.4936 41.8037 27.383 41.7099 27.29Z" fill="white"/>
</svg>
