<svg width="64" height="64" viewBox="0 0 64 64" fill="none" xmlns="http://www.w3.org/2000/svg">
<rect width="64" height="64" rx="6" fill="#22C55E"/>
<g clip-path="url(#clip0_1365_19744)">
<path d="M37 41.63H25C24.2044 41.63 23.4413 41.3139 22.8787 40.7513C22.3161 40.1887 22 39.4257 22 38.63V30.63C22 30.3648 21.8946 30.1104 21.7071 29.9229C21.5196 29.7354 21.2652 29.63 21 29.63C20.7348 29.63 20.4804 29.7354 20.2929 29.9229C20.1054 30.1104 20 30.3648 20 30.63V38.63C20 39.9561 20.5268 41.2279 21.4645 42.1655C22.4021 43.1032 23.6739 43.63 25 43.63H37C37.2652 43.63 37.5196 43.5246 37.7071 43.3371C37.8946 43.1496 38 42.8952 38 42.63C38 42.3648 37.8946 42.1104 37.7071 41.9229C37.5196 41.7354 37.2652 41.63 37 41.63ZM41 23.63H27C26.2044 23.63 25.4413 23.9461 24.8787 24.5087C24.3161 25.0713 24 25.8344 24 26.63V36.63C24 37.4257 24.3161 38.1887 24.8787 38.7513C25.4413 39.3139 26.2044 39.63 27 39.63H41C41.7956 39.63 42.5587 39.3139 43.1213 38.7513C43.6839 38.1887 44 37.4257 44 36.63V26.63C44 25.8344 43.6839 25.0713 43.1213 24.5087C42.5587 23.9461 41.7956 23.63 41 23.63ZM40.59 25.63L34.71 31.51C34.617 31.6037 34.5064 31.6781 34.3846 31.7289C34.2627 31.7797 34.132 31.8058 34 31.8058C33.868 31.8058 33.7373 31.7797 33.6154 31.7289C33.4936 31.6781 33.383 31.6037 33.29 31.51L27.41 25.63H40.59ZM42 36.63C42 36.8952 41.8946 37.1496 41.7071 37.3371C41.5196 37.5246 41.2652 37.63 41 37.63H27C26.7348 37.63 26.4804 37.5246 26.2929 37.3371C26.1054 37.1496 26 36.8952 26 36.63V27L31.88 32.88C32.4425 33.4418 33.205 33.7574 34 33.7574C34.795 33.7574 35.5575 33.4418 36.12 32.88L42 27V36.63Z" fill="white"/>
</g>
<defs>
<clipPath id="clip0_1365_19744">
<rect width="24" height="24" fill="white" transform="translate(20 20)"/>
</clipPath>
</defs>
</svg>
