<svg width="64" height="64" viewBox="0 0 64 64" fill="none" xmlns="http://www.w3.org/2000/svg">
<rect width="64" height="64" rx="6" fill="#22C55E"/>
<path d="M25 38H29.24C29.3716 38.0008 29.5021 37.9755 29.6239 37.9258C29.7457 37.876 29.8566 37.8027 29.95 37.71L36.87 30.78L39.71 28C39.8037 27.907 39.8781 27.7964 39.9289 27.6746C39.9797 27.5527 40.0058 27.422 40.0058 27.29C40.0058 27.158 39.9797 27.0273 39.9289 26.9054C39.8781 26.7836 39.8037 26.673 39.71 26.58L35.47 22.29C35.377 22.1963 35.2664 22.1219 35.1446 22.0711C35.0227 22.0203 34.892 21.9942 34.76 21.9942C34.628 21.9942 34.4973 22.0203 34.3754 22.0711C34.2536 22.1219 34.143 22.1963 34.05 22.29L31.23 25.12L24.29 32.05C24.1973 32.1434 24.124 32.2543 24.0742 32.3761C24.0245 32.4979 23.9992 32.6284 24 32.76V37C24 37.2652 24.1054 37.5196 24.2929 37.7071C24.4804 37.8946 24.7348 38 25 38ZM34.76 24.41L37.59 27.24L36.17 28.66L33.34 25.83L34.76 24.41ZM26 33.17L31.93 27.24L34.76 30.07L28.83 36H26V33.17ZM41 40H23C22.7348 40 22.4804 40.1054 22.2929 40.2929C22.1054 40.4804 22 40.7348 22 41C22 41.2652 22.1054 41.5196 22.2929 41.7071C22.4804 41.8946 22.7348 42 23 42H41C41.2652 42 41.5196 41.8946 41.7071 41.7071C41.8946 41.5196 42 41.2652 42 41C42 40.7348 41.8946 40.4804 41.7071 40.2929C41.5196 40.1054 41.2652 40 41 40Z" fill="white"/>
</svg>
