<svg width="64" height="64" viewBox="0 0 64 64" fill="none" xmlns="http://www.w3.org/2000/svg">
<rect width="64" height="64" rx="6" fill="#22C55E"/>
<path d="M30 33H23C22.7348 33 22.4804 33.1054 22.2929 33.2929C22.1054 33.4804 22 33.7348 22 34V41C22 41.2652 22.1054 41.5196 22.2929 41.7071C22.4804 41.8946 22.7348 42 23 42H30C30.2652 42 30.5196 41.8946 30.7071 41.7071C30.8946 41.5196 31 41.2652 31 41V34C31 33.7348 30.8946 33.4804 30.7071 33.2929C30.5196 33.1054 30.2652 33 30 33ZM29 40H24V35H29V40ZM41 22H34C33.7348 22 33.4804 22.1054 33.2929 22.2929C33.1054 22.4804 33 22.7348 33 23V30C33 30.2652 33.1054 30.5196 33.2929 30.7071C33.4804 30.8946 33.7348 31 34 31H41C41.2652 31 41.5196 30.8946 41.7071 30.7071C41.8946 30.5196 42 30.2652 42 30V23C42 22.7348 41.8946 22.4804 41.7071 22.2929C41.5196 22.1054 41.2652 22 41 22ZM40 29H35V24H40V29ZM41 33H34C33.7348 33 33.4804 33.1054 33.2929 33.2929C33.1054 33.4804 33 33.7348 33 34V41C33 41.2652 33.1054 41.5196 33.2929 41.7071C33.4804 41.8946 33.7348 42 34 42H41C41.2652 42 41.5196 41.8946 41.7071 41.7071C41.8946 41.5196 42 41.2652 42 41V34C42 33.7348 41.8946 33.4804 41.7071 33.2929C41.5196 33.1054 41.2652 33 41 33ZM40 40H35V35H40V40ZM30 22H23C22.7348 22 22.4804 22.1054 22.2929 22.2929C22.1054 22.4804 22 22.7348 22 23V30C22 30.2652 22.1054 30.5196 22.2929 30.7071C22.4804 30.8946 22.7348 31 23 31H30C30.2652 31 30.5196 30.8946 30.7071 30.7071C30.8946 30.5196 31 30.2652 31 30V23C31 22.7348 30.8946 22.4804 30.7071 22.2929C30.5196 22.1054 30.2652 22 30 22ZM29 29H24V24H29V29Z" fill="white"/>
</svg>
