<?xml version="1.0" encoding="UTF-8"?>
<!DOCTYPE svg PUBLIC "-//W3C//DTD SVG 1.1//EN" "http://www.w3.org/Graphics/SVG/1.1/DTD/svg11.dtd">
<svg xmlns="http://www.w3.org/2000/svg" version="1.1" width="150px" height="150px" style="shape-rendering:geometricPrecision; text-rendering:geometricPrecision; image-rendering:optimizeQuality; fill-rule:evenodd; clip-rule:evenodd" xmlns:xlink="http://www.w3.org/1999/xlink">
<g><path style="opacity:1" fill="#fefaf6" d="M -0.5,-0.5 C 49.5,-0.5 99.5,-0.5 149.5,-0.5C 149.5,49.5 149.5,99.5 149.5,149.5C 99.5,149.5 49.5,149.5 -0.5,149.5C -0.5,99.5 -0.5,49.5 -0.5,-0.5 Z"/></g>
<g><path style="opacity:1" fill="#c8d5a6" d="M 39.5,46.5 C 38.2502,46.4226 37.4169,45.756 37,44.5C 36.8784,46.437 36.045,47.7703 34.5,48.5C 35.1495,46.5648 35.4828,44.5648 35.5,42.5C 36.8333,42.5 38.1667,42.5 39.5,42.5C 39.5,43.8333 39.5,45.1667 39.5,46.5 Z"/></g>
<g><path style="opacity:1" fill="#246e4a" d="M 113.5,50.5 C 111.396,50.7989 109.396,50.4656 107.5,49.5C 106.923,47.4501 105.59,46.4501 103.5,46.5C 104.285,43.1423 105.285,39.809 106.5,36.5C 108.958,41.156 111.292,45.8227 113.5,50.5 Z"/></g>
<g><path style="opacity:1" fill="#90b1a0" d="M 99.5,50.5 C 99.5,51.8333 98.8333,52.5 97.5,52.5C 97.5,51.1667 98.1667,50.5 99.5,50.5 Z"/></g>
<g><path style="opacity:1" fill="#0a683b" d="M 103.5,46.5 C 105.59,46.4501 106.923,47.4501 107.5,49.5C 109.396,50.4656 111.396,50.7989 113.5,50.5C 113.5,51.1667 113.5,51.8333 113.5,52.5C 113.232,54.099 113.566,55.4324 114.5,56.5C 114.666,61.8437 114.499,67.1771 114,72.5C 111.78,77.6561 110.28,82.9894 109.5,88.5C 106.53,92.4716 103.196,96.1383 99.5,99.5C 94.5329,100.988 89.8662,102.988 85.5,105.5C 83.847,105.66 82.5137,106.326 81.5,107.5C 80.1667,107.5 79.5,108.167 79.5,109.5C 76.8333,110.833 74.8333,112.833 73.5,115.5C 72.1667,115.5 71.5,114.833 71.5,113.5C 71.7573,110.068 72.424,106.734 73.5,103.5C 74.8333,103.5 75.5,102.833 75.5,101.5C 77.8802,99.7633 79.5469,97.43 80.5,94.5C 81.7277,92.679 83.3944,91.679 85.5,91.5C 85.4003,88.8915 86.0669,86.5582 87.5,84.5C 90.1843,79.1683 93.851,74.5016 98.5,70.5C 99.4287,69.3112 99.762,67.9778 99.5,66.5C 88.0524,75.7434 78.719,86.7434 71.5,99.5C 70.2179,91.9622 70.2179,84.2955 71.5,76.5C 71.6138,74.2821 72.2804,72.2821 73.5,70.5C 74.8333,70.5 75.5,69.8333 75.5,68.5C 75.7214,67.2652 76.3881,66.2652 77.5,65.5C 81.2751,62.7126 85.2751,60.3792 89.5,58.5C 90.8333,58.5 91.5,57.8333 91.5,56.5C 92.8333,55.8333 94.1667,55.1667 95.5,54.5C 96.8333,54.5 97.5,53.8333 97.5,52.5C 98.8333,52.5 99.5,51.8333 99.5,50.5C 100.833,49.1667 102.167,47.8333 103.5,46.5 Z"/></g>
<g><path style="opacity:1" fill="#74a08b" d="M 97.5,52.5 C 97.5,53.8333 96.8333,54.5 95.5,54.5C 95.5,53.1667 96.1667,52.5 97.5,52.5 Z"/></g>
<g><path style="opacity:1" fill="#7ca38e" d="M 113.5,52.5 C 115.176,53.1834 115.843,54.5168 115.5,56.5C 115.167,56.5 114.833,56.5 114.5,56.5C 113.566,55.4324 113.232,54.099 113.5,52.5 Z"/></g>
<g><path style="opacity:1" fill="#96bd5f" d="M 41.5,50.5 C 44.4668,52.9144 47.1334,55.581 49.5,58.5C 47.8008,58.6602 46.1341,58.4935 44.5,58C 42.7964,55.7625 41.7964,53.2625 41.5,50.5 Z"/></g>
<g><path style="opacity:1" fill="#77a38d" d="M 91.5,56.5 C 91.5,57.8333 90.8333,58.5 89.5,58.5C 89.5,57.1667 90.1667,56.5 91.5,56.5 Z"/></g>
<g><path style="opacity:1" fill="#98bc65" d="M 51.5,58.5 C 53.4469,59.4734 55.4469,60.4734 57.5,61.5C 58.6119,62.2652 59.2786,63.2652 59.5,64.5C 54.5548,65.3235 51.8882,63.3235 51.5,58.5 Z"/></g>
<g><path style="opacity:1" fill="#b1d0be" d="M 101.5,64.5 C 101.639,62.663 102.306,62.3296 103.5,63.5C 103.043,64.2975 102.376,64.6309 101.5,64.5 Z"/></g>
<g><path style="opacity:1" fill="#a8c484" d="M 32.5,56.5 C 31.1667,61.8333 31.1667,67.1667 32.5,72.5C 30.9532,70.1934 30.2865,67.5267 30.5,64.5C 30.2865,61.4733 30.9532,58.8066 32.5,56.5 Z"/></g>
<g><path style="opacity:1" fill="#dbe7db" d="M 101.5,64.5 C 101.5,65.8333 100.833,66.5 99.5,66.5C 99.5,65.1667 100.167,64.5 101.5,64.5 Z"/></g>
<g><path style="opacity:1" fill="#266e4c" d="M 114.5,56.5 C 114.833,56.5 115.167,56.5 115.5,56.5C 115.5,57.1667 115.5,57.8333 115.5,58.5C 115.5,63.8333 115.5,69.1667 115.5,74.5C 115.085,79.9811 113.085,84.6478 109.5,88.5C 110.28,82.9894 111.78,77.6561 114,72.5C 114.499,67.1771 114.666,61.8437 114.5,56.5 Z"/></g>
<g><path style="opacity:1" fill="#8fbb4e" d="M 39.5,46.5 C 40.6737,47.5137 41.3404,48.847 41.5,50.5C 39.4091,51.8654 37.0758,52.5321 34.5,52.5C 34.3359,55.1873 34.5026,57.854 35,60.5C 36.6965,62.5596 37.8631,64.8929 38.5,67.5C 35.9356,70.7587 35.1023,74.4254 36,78.5C 37.7412,80.3956 39.2412,82.3956 40.5,84.5C 38.6776,84.1692 37.0109,83.5025 35.5,82.5C 33.9205,79.3408 32.9205,76.0075 32.5,72.5C 31.1667,67.1667 31.1667,61.8333 32.5,56.5C 32.1107,53.4467 32.7773,50.78 34.5,48.5C 36.045,47.7703 36.8784,46.437 37,44.5C 37.4169,45.756 38.2502,46.4226 39.5,46.5 Z"/></g>
<g><path style="opacity:1" fill="#92afa0" d="M 115.5,58.5 C 116.812,60.7432 117.478,63.4098 117.5,66.5C 117.478,69.5902 116.812,72.2568 115.5,74.5C 115.5,69.1667 115.5,63.8333 115.5,58.5 Z"/></g>
<g><path style="opacity:1" fill="#88bd43" d="M 41.5,50.5 C 41.7964,53.2625 42.7964,55.7625 44.5,58C 46.1341,58.4935 47.8008,58.6602 49.5,58.5C 50.1667,58.5 50.8333,58.5 51.5,58.5C 51.8882,63.3235 54.5548,65.3235 59.5,64.5C 61.5,65.1667 62.8333,66.5 63.5,68.5C 64.6831,73.7543 65.3498,79.0877 65.5,84.5C 64.1667,83.8333 62.8333,83.1667 61.5,82.5C 56.244,76.2402 50.5774,70.2402 44.5,64.5C 43.9344,62.9217 42.9344,61.5884 41.5,60.5C 41.2824,63.4374 42.2824,66.1041 44.5,68.5C 48.0452,71.0356 50.3785,74.3689 51.5,78.5C 54.142,78.4877 55.4754,79.821 55.5,82.5C 55.2267,87.3316 52.5601,89.3316 47.5,88.5C 47.5,87.1667 47.5,85.8333 47.5,84.5C 45.1667,84.5 42.8333,84.5 40.5,84.5C 39.2412,82.3956 37.7412,80.3956 36,78.5C 35.1023,74.4254 35.9356,70.7587 38.5,67.5C 37.8631,64.8929 36.6965,62.5596 35,60.5C 34.5026,57.854 34.3359,55.1873 34.5,52.5C 37.0758,52.5321 39.4091,51.8654 41.5,50.5 Z"/></g>
<g><path style="opacity:1" fill="#bbd98d" d="M 44.5,64.5 C 44.5,65.8333 44.5,67.1667 44.5,68.5C 42.2824,66.1041 41.2824,63.4374 41.5,60.5C 42.9344,61.5884 43.9344,62.9217 44.5,64.5 Z"/></g>
<g><path style="opacity:1" fill="#8cac9c" d="M 75.5,68.5 C 75.5,69.8333 74.8333,70.5 73.5,70.5C 73.5,69.1667 74.1667,68.5 75.5,68.5 Z"/></g>
<g><path style="opacity:1" fill="#dae5c2" d="M 44.5,64.5 C 50.5774,70.2402 56.244,76.2402 61.5,82.5C 61.8702,85.267 63.2036,87.267 65.5,88.5C 65.4729,90.1993 64.8062,91.5326 63.5,92.5C 62.8333,91.8333 62.1667,91.1667 61.5,90.5C 59.9992,87.5164 57.9992,84.8498 55.5,82.5C 55.4754,79.821 54.142,78.4877 51.5,78.5C 50.3785,74.3689 48.0452,71.0356 44.5,68.5C 44.5,67.1667 44.5,65.8333 44.5,64.5 Z"/></g>
<g><path style="opacity:1" fill="#dae1c4" d="M 35.5,82.5 C 37.0109,83.5025 38.6776,84.1692 40.5,84.5C 41.1667,85.8333 41.8333,87.1667 42.5,88.5C 39.0128,87.6248 36.6795,85.6248 35.5,82.5 Z"/></g>
<g><path style="opacity:1" fill="#92b86a" d="M 61.5,82.5 C 62.8333,83.1667 64.1667,83.8333 65.5,84.5C 65.5,85.8333 65.5,87.1667 65.5,88.5C 63.2036,87.267 61.8702,85.267 61.5,82.5 Z"/></g>
<g><path style="opacity:1" fill="#4d8b67" d="M 71.5,76.5 C 70.2179,84.2955 70.2179,91.9622 71.5,99.5C 71.1583,100.338 70.4916,100.672 69.5,100.5C 69.5,98.8333 69.5,97.1667 69.5,95.5C 69.5,91.8333 69.5,88.1667 69.5,84.5C 68.9644,81.3019 69.631,78.6353 71.5,76.5 Z"/></g>
<g><path style="opacity:1" fill="#8aba4f" d="M 55.5,82.5 C 57.9992,84.8498 59.9992,87.5164 61.5,90.5C 61.7852,92.288 61.4519,93.9547 60.5,95.5C 58.9291,94.6906 57.2624,94.3573 55.5,94.5C 53.1595,92.7981 50.4928,91.4647 47.5,90.5C 45.6776,90.1692 44.0109,89.5025 42.5,88.5C 41.8333,87.1667 41.1667,85.8333 40.5,84.5C 42.8333,84.5 45.1667,84.5 47.5,84.5C 47.5,85.8333 47.5,87.1667 47.5,88.5C 52.5601,89.3316 55.2267,87.3316 55.5,82.5 Z"/></g>
<g><path style="opacity:1" fill="#90af9d" d="M 83.5,88.5 C 83.5,89.8333 82.8333,90.5 81.5,90.5C 81.5,89.1667 82.1667,88.5 83.5,88.5 Z"/></g>
<g><path style="opacity:1" fill="#d2dec9" d="M 63.5,68.5 C 65.7075,73.8685 67.7075,79.2018 69.5,84.5C 69.5,88.1667 69.5,91.8333 69.5,95.5C 67.7629,92.992 66.9296,89.992 67,86.5C 66.7216,87.4158 66.2216,88.0825 65.5,88.5C 65.5,87.1667 65.5,85.8333 65.5,84.5C 65.3498,79.0877 64.6831,73.7543 63.5,68.5 Z"/></g>
<g><path style="opacity:1" fill="#3b7d5c" d="M 87.5,84.5 C 86.0669,86.5582 85.4003,88.8915 85.5,91.5C 83.3944,91.679 81.7277,92.679 80.5,94.5C 79.5469,97.43 77.8802,99.7633 75.5,101.5C 76.7288,97.3731 78.7288,93.7064 81.5,90.5C 82.8333,90.5 83.5,89.8333 83.5,88.5C 84.1667,86.5 85.5,85.1667 87.5,84.5 Z"/></g>
<g><path style="opacity:1" fill="#bfd299" d="M 47.5,90.5 C 50.4928,91.4647 53.1595,92.7981 55.5,94.5C 52.1317,94.3452 49.465,93.0119 47.5,90.5 Z"/></g>
<g><path style="opacity:1" fill="#dce4db" d="M 99.5,66.5 C 99.762,67.9778 99.4287,69.3112 98.5,70.5C 93.851,74.5016 90.1843,79.1683 87.5,84.5C 85.5,85.1667 84.1667,86.5 83.5,88.5C 82.1667,88.5 81.5,89.1667 81.5,90.5C 78.7288,93.7064 76.7288,97.3731 75.5,101.5C 75.5,102.833 74.8333,103.5 73.5,103.5C 72.5525,102.022 71.2191,101.022 69.5,100.5C 70.4916,100.672 71.1583,100.338 71.5,99.5C 78.719,86.7434 88.0524,75.7434 99.5,66.5 Z"/></g>
<g><path style="opacity:1" fill="#9ebd72" d="M 61.5,90.5 C 62.1667,91.1667 62.8333,91.8333 63.5,92.5C 64.0102,95.3878 63.3435,97.7211 61.5,99.5C 59.8693,97.3567 57.8693,95.69 55.5,94.5C 57.2624,94.3573 58.9291,94.6906 60.5,95.5C 61.4519,93.9547 61.7852,92.288 61.5,90.5 Z"/></g>
<g><path style="opacity:1" fill="#d1d7bd" d="M 63.5,92.5 C 65.0666,95.9166 65.5666,99.5832 65,103.5C 63.6125,102.264 62.4458,100.931 61.5,99.5C 63.3435,97.7211 64.0102,95.3878 63.5,92.5 Z"/></g>
<g><path style="opacity:1" fill="#aabba8" d="M 99.5,99.5 C 99.5858,100.496 99.2524,101.329 98.5,102C 94.272,103.662 89.9387,104.829 85.5,105.5C 89.8662,102.988 94.5329,100.988 99.5,99.5 Z"/></g>
<g><path style="opacity:1" fill="#8ba99b" d="M 85.5,105.5 C 84.8166,107.176 83.4832,107.843 81.5,107.5C 82.5137,106.326 83.847,105.66 85.5,105.5 Z"/></g>
<g><path style="opacity:1" fill="#92af9f" d="M 81.5,107.5 C 81.5,108.833 80.8333,109.5 79.5,109.5C 79.5,108.167 80.1667,107.5 81.5,107.5 Z"/></g>
<g><path style="opacity:1" fill="#b4b9b1" d="M 71.5,113.5 C 71.5,114.833 72.1667,115.5 73.5,115.5C 72.9344,117.078 71.9344,118.412 70.5,119.5C 70.1667,118.5 69.8333,117.5 69.5,116.5C 69.6399,114.97 70.3065,113.97 71.5,113.5 Z"/></g>
</svg>
