<svg width="150" height="150" viewBox="0 0 150 150" fill="none" xmlns="http://www.w3.org/2000/svg">
<rect width="150" height="150" fill="#843C0A"/>
<path d="M113.312 24.9062C114.333 24.9062 114.844 25.4167 114.844 26.4375C114.844 27.125 114.333 28.1146 113.312 29.4062L83.4688 63.8125H94.0938L93.8438 67.9062H79.875L49.0312 103.625C52.8854 103.125 56.0417 102.875 58.5 102.875C60.9583 102.875 66.8646 103.385 76.2188 104.406C85.5729 105.427 91.6042 105.938 94.3125 105.938C97.0208 105.938 99.2812 105.604 101.094 104.938C102.927 104.271 104.406 103.427 105.531 102.406C106.677 101.365 107.635 100.188 108.406 98.875C109.781 96.5417 110.469 94.0729 110.469 91.4688C110.469 90.7604 110.385 89.9896 110.219 89.1562L112.406 88.5312C113.177 90.4062 113.562 92.1146 113.562 93.6562C113.562 95.1979 113.49 96.5938 113.344 97.8438C113.219 99.0938 112.969 100.469 112.594 101.969C112.219 103.469 111.729 104.865 111.125 106.156C110.542 107.448 109.74 108.719 108.719 109.969C107.698 111.198 106.521 112.25 105.188 113.125C102.292 115.083 98.9479 116.062 95.1562 116.062C91.3854 116.062 86.7604 115.667 81.2812 114.875C75.8229 114.083 70.4583 113.292 65.1875 112.5C59.9167 111.708 56.0833 111.312 53.6875 111.312C51.3125 111.312 49.5208 111.333 48.3125 111.375C47.125 111.417 45.9583 111.51 44.8125 111.656C43.6667 111.781 42.7708 112.01 42.125 112.344C40.7917 113.031 39.5938 114.031 38.5312 115.344C37.4688 116.656 36.4375 117.312 35.4375 117.312C34.4375 117.312 33.9375 116.51 33.9375 114.906C33.9375 113.99 35.8958 111.26 39.8125 106.719L74.125 67.9062H63.625L64.0312 63.8125H77.7188L101.25 37.1875C97.4167 37.625 93.6771 37.8438 90.0312 37.8438C86.3854 37.8438 82.9167 37.6458 79.625 37.25C76.3542 36.8542 73.5417 36.4167 71.1875 35.9375C65.0208 34.6458 60.5 34 57.625 34C54.7708 34 52.4896 34.3542 50.7812 35.0625C49.0938 35.7708 47.7396 36.6875 46.7188 37.8125C44.5938 40.1458 43.5312 42.3438 43.5312 44.4062C43.5312 46.4688 44.0417 48.1042 45.0625 49.3125C47.1042 51.7292 49.7917 52.9375 53.125 52.9375C54.9375 52.9375 56.1042 52.5833 56.625 51.875C57.1667 51.1667 57.5417 50.6042 57.75 50.1875C58.25 49.2083 58.7292 48.7188 59.1875 48.7188C59.6458 48.7188 60.0312 48.9583 60.3438 49.4375C60.6562 49.8958 60.8125 50.4688 60.8125 51.1562C60.8125 53.9062 59.8958 56.0625 58.0625 57.625C56.25 59.1875 54.0521 59.9688 51.4688 59.9688C47.9062 59.9688 44.9479 58.5625 42.5938 55.75C40.7396 53.5417 39.8125 50.5625 39.8125 46.8125C39.8125 40.375 42.1458 35.0417 46.8125 30.8125C50.2292 27.7292 54.6458 26.1875 60.0625 26.1875C64 26.1875 68.2396 26.6562 72.7812 27.5938C81.4896 29.3854 89.1458 30.2812 95.75 30.2812C102.354 30.2812 106.271 29.8958 107.5 29.125C108.75 28.3333 109.75 27.5833 110.5 26.875C111.854 25.5625 112.792 24.9062 113.312 24.9062Z" fill="#FAE7C3"/>
</svg>
